<?xml version="1.0" encoding="UTF-8" standalone="no"?>
<!-- Uploaded to: SVG Repo, www.svgrepo.com, Generator: SVG Repo Mixer Tools -->

<svg
   fill="#000000"
   height="800px"
   width="800px"
   version="1.1"
   viewBox="0 0 512 512"
   enable-background="new 0 0 512 512"
   id="svg2"
   sodipodi:docname="pencil_white.svg"
   inkscape:version="1.4.2 (f4327f4, 2025-05-13)"
   xmlns:inkscape="http://www.inkscape.org/namespaces/inkscape"
   xmlns:sodipodi="http://sodipodi.sourceforge.net/DTD/sodipodi-0.dtd"
   xmlns="http://www.w3.org/2000/svg"
   xmlns:svg="http://www.w3.org/2000/svg">
  <defs
     id="defs2" />
  <sodipodi:namedview
     id="namedview2"
     pagecolor="#ffffff"
     bordercolor="#000000"
     borderopacity="0.25"
     inkscape:showpageshadow="2"
     inkscape:pageopacity="0.0"
     inkscape:pagecheckerboard="0"
     inkscape:deskcolor="#d1d1d1"
     inkscape:zoom="0.8575"
     inkscape:cx="399.41691"
     inkscape:cy="400"
     inkscape:window-width="1600"
     inkscape:window-height="930"
     inkscape:window-x="2041"
     inkscape:window-y="-6"
     inkscape:window-maximized="1"
     inkscape:current-layer="svg2" />
  <g
     id="g2">
    <g
       id="g1">
      <path
         d="m 455.1,137.9 -32.4,32.4 -81,-81.1 32.4,-32.4 c 6.6,-6.6 18.1,-6.6 24.7,0 l 56.3,56.4 c 6.8,6.8 6.8,17.9 0,24.7 z m -270.7,271 -81,-81.1 209.4,-209.7 81,81.1 z m -99.7,-42 60.6,60.7 -84.4,23.8 z M 484,84.3 427.7,27.9 c -11,-11 -50.7,-31.8 -82.4,0 L 60,313.4 c -2.5,2.5 -4.3,5.5 -5.2,8.9 l -43,153.1 c -2,7.1 0.1,14.7 5.2,20 5.2,5.3 15.6,6.2 20,5.2 l 153,-43.1 c 3.4,-0.9 6.4,-2.7 8.9,-5.2 L 484,166.8 c 22.7,-22.7 22.7,-59.7 0,-82.5 z"
         id="path1"
         inkscape:label="path1"
         style="display:inline;fill:#ffffff" />
    </g>
  </g>
</svg>
